<svg id="Layer_1" data-name="Layer 1" xmlns="http://www.w3.org/2000/svg" viewBox="0 0 312 24"><defs><style>.cls-1{fill:#ff671d;}.cls-2,.cls-7{fill:#fff;}.cls-3{fill:#344f85;}.cls-4{fill:#2aa9e0;}.cls-5{fill:#f28400;}.cls-6{fill:#dd5044;}.cls-7{fill-rule:evenodd;}.cls-8{fill:#4d75a3;}.cls-9{fill:#00b0ea;}.cls-10{fill:#15374c;}.cls-11{fill:#29acdf;}.cls-12{fill:#d2e5f1;}.cls-13{fill:#b5cfe4;}.cls-14{fill:red;}.cls-15{fill:#25d366;}.cls-16{fill:#fdfffe;}.cls-17{fill:#0084ff;}.cls-18{fill:#ff5700;}</style></defs><title>All_in_One_24x24_each_Responsive</title><rect class="cls-1" x="96" width="24" height="24"/><path class="cls-2" d="M108,12.65a4.46,4.46,0,1,0-4.46-4.46A4.46,4.46,0,0,0,108,12.65Zm0-6.3a1.85,1.85,0,1,1-1.84,1.84A1.85,1.85,0,0,1,108,6.35Z"/><path class="cls-2" d="M109.8,16.28a8.61,8.61,0,0,0,2.59-1.07A1.31,1.31,0,1,0,111,13a5.65,5.65,0,0,1-6,0,1.31,1.31,0,0,0-1.39,2.21,8.5,8.5,0,0,0,2.59,1.07l-2.49,2.49a1.3,1.3,0,1,0,1.84,1.85L108,18.17l2.45,2.45a1.3,1.3,0,1,0,1.84-1.85Z"/><rect class="cls-3" x="48" width="24" height="24"/><path class="cls-2" d="M63.62,9.15H65V6.38H62.61c-2.46,0-3.87,2.48-3.84,4.16v1.38H56v2.77h2.77V23h3.46V14.69H65V11.92H62.23V10.5A1.38,1.38,0,0,1,63.62,9.15Z"/><rect class="cls-4" x="24" width="24" height="24"/><path class="cls-2" d="M44.34,7.5A6.61,6.61,0,0,1,42.45,8,3.32,3.32,0,0,0,43.9,6.2a6.62,6.62,0,0,1-2.09.8,3.28,3.28,0,0,0-5.68,2.25,3.06,3.06,0,0,0,.09.74,9.31,9.31,0,0,1-6.77-3.43,3.31,3.31,0,0,0,1,4.39A3.3,3.3,0,0,1,29,10.53v.05a3.29,3.29,0,0,0,2.64,3.21,3.1,3.1,0,0,1-.87.12,3,3,0,0,1-.61-.06,3.28,3.28,0,0,0,3.06,2.28,6.58,6.58,0,0,1-4.07,1.41,6.84,6.84,0,0,1-.79-.05A9.34,9.34,0,0,0,42.71,9.63c0-.15,0-.29,0-.43A6.63,6.63,0,0,0,44.34,7.5Z"/><rect class="cls-2" x="168" width="24" height="24"/><rect class="cls-5" x="216" width="24" height="24"/><rect class="cls-6" x="120" width="24" height="24"/><path class="cls-7" d="M129,11.26v2.51h3.38a3.52,3.52,0,1,1-1-3.95l1.77-1.73a6,6,0,1,0,2,4.43,6.57,6.57,0,0,0-.13-1.26Zm10.9.19V9.37h-1.52v2.08H136.3V13h2.09v2.09h1.52V13H142V11.45Z"/><rect class="cls-8" width="24" height="24"/><path class="cls-7" d="M11.32,16.66h1a.89.89,0,0,0,.46-.21.75.75,0,0,0,.14-.44s0-1.36.61-1.57,1.43,1.32,2.27,1.9a1.58,1.58,0,0,0,1.13.35l2.27,0s1.19-.08.63-1a7.65,7.65,0,0,0-1.69-2c-1.42-1.33-1.23-1.11.48-3.4C19.69,8.91,20.1,8.06,20,7.7s-.89-.26-.89-.26l-2.56,0a.54.54,0,0,0-.33.06.74.74,0,0,0-.22.27,16.07,16.07,0,0,1-.94,2c-1.14,1.93-1.6,2-1.78,1.91-.44-.28-.33-1.12-.33-1.72,0-1.88.29-2.66-.55-2.86A4.33,4.33,0,0,0,11.18,7a5.41,5.41,0,0,0-2.13.22c-.29.14-.51.46-.38.48a1.15,1.15,0,0,1,.76.37,2.5,2.5,0,0,1,.25,1.16s.15,2.21-.35,2.48c-.34.19-.82-.19-1.83-2a16.22,16.22,0,0,1-.91-1.89.83.83,0,0,0-.21-.29A1.25,1.25,0,0,0,6,7.43H3.56s-.37,0-.5.17S3,8,3,8a28,28,0,0,0,4.06,6.7,5.87,5.87,0,0,0,4.22,1.92Z"/><rect class="cls-9" x="144" width="24" height="24"/><path class="cls-2" d="M162.42,15.47c-.29-1.43-.57-2.72-.57-2.72h0a9.85,9.85,0,0,0-5.07,5.11l2.69.58a5.81,5.81,0,0,1,2.95-3"/><path class="cls-10" d="M156.78,17.86a9.85,9.85,0,0,1,5.07-5.11h0l-8-8h0A9.9,9.9,0,0,0,148.8,9.9Z"/><path class="cls-10" d="M162.42,15.47a5.74,5.74,0,0,0-2.95,3l3.73.77Z"/><path class="cls-2" d="M228.06,17.94V18h1.8v-.06a7.78,7.78,0,0,0-7.81-7.78h0V12h0A6,6,0,0,1,228.06,17.94Z"/><path class="cls-2" d="M222,16.37a1.63,1.63,0,1,0,1.63-1.63A1.63,1.63,0,0,0,222,16.37Z"/><path class="cls-2" d="M232.2,17.94a.13.13,0,0,1,0,.06H234v-.06A11.93,11.93,0,0,0,222.05,6h0v1.8h0A10.15,10.15,0,0,1,232.2,17.94Z"/><rect class="cls-11" x="192" width="24" height="24"/><path class="cls-2" d="M211,6.46l-2.38,12a.87.87,0,0,1-1.24.43l-5.48-4.2-2-1-3.35-1.13s-.51-.18-.56-.58.58-.61.58-.61L209.9,6.14S211,5.66,211,6.46Z"/><path class="cls-12" d="M201.48,18.29s-.16,0-.36-.65-1.21-4-1.21-4L208,8.58s.46-.28.45,0c0,0,.08.05-.17.28s-6.32,5.69-6.32,5.69"/><path class="cls-13" d="M204,16.26l-2.16,2a.39.39,0,0,1-.36.05l.42-3.67"/><rect class="cls-14" x="72" width="24" height="24"/><g id="Lozenge"><path class="cls-2" d="M91.84,9.37a3.33,3.33,0,0,0-.64-1.55,2.3,2.3,0,0,0-1.6-.66C87.36,7,84,7,84,7h0s-3.36,0-5.6.16a2.28,2.28,0,0,0-1.6.66,3.22,3.22,0,0,0-.64,1.55A23.23,23.23,0,0,0,76,11.9v1.19a23,23,0,0,0,.16,2.53,3.22,3.22,0,0,0,.64,1.55,2.66,2.66,0,0,0,1.76.67C79.84,18,84,18,84,18s3.36,0,5.6-.16a2.32,2.32,0,0,0,1.6-.67,3.33,3.33,0,0,0,.64-1.55A23,23,0,0,0,92,13.09V11.9A23.23,23.23,0,0,0,91.84,9.37Zm-9.49,5.16v-4.4l4.32,2.21Z"/></g><rect class="cls-15" x="240" width="24" height="24"/><path id="WA_Logo" data-name="WA Logo" class="cls-16" d="M257.1,7.5a7.17,7.17,0,0,0-11.28,8.65l-1,3.72,3.8-1a7.19,7.19,0,0,0,3.43.87h0A7.17,7.17,0,0,0,257.1,7.5Zm-5.07,11h0a5.91,5.91,0,0,1-3-.83l-.21-.13-2.26.6.6-2.2-.14-.23A6,6,0,0,1,252,6.61a6,6,0,1,1,0,11.92Zm3.27-4.46c-.18-.09-1.06-.52-1.23-.58s-.28-.09-.4.09a9,9,0,0,1-.57.7c-.1.12-.2.13-.38,0a4.52,4.52,0,0,1-1.44-.88,5.19,5.19,0,0,1-1-1.25c-.11-.17,0-.27.08-.36s.18-.21.27-.31a1.33,1.33,0,0,0,.18-.3.33.33,0,0,0,0-.32l-.55-1.33c-.15-.35-.29-.3-.4-.31h-.35a.66.66,0,0,0-.48.22,2,2,0,0,0-.62,1.5,3.48,3.48,0,0,0,.73,1.85,8,8,0,0,0,3.06,2.71,10.7,10.7,0,0,0,1,.37,2.36,2.36,0,0,0,1.13.07,1.85,1.85,0,0,0,1.21-.85,1.42,1.42,0,0,0,.1-.85C255.6,14.21,255.48,14.16,255.3,14.07Z"/><rect class="cls-17" x="264" width="24" height="24"/><path d="M180,5.77c2.14,0,2.39,0,3.23.05a4.52,4.52,0,0,1,1.49.28,2.42,2.42,0,0,1,.92.59,2.57,2.57,0,0,1,.6.92,4.39,4.39,0,0,1,.27,1.49c0,.84.05,1.1.05,3.23s0,2.39-.05,3.23a4.33,4.33,0,0,1-.27,1.49,2.67,2.67,0,0,1-1.52,1.52,4.33,4.33,0,0,1-1.49.27c-.84,0-1.09.05-3.23.05s-2.39,0-3.23-.05a4.33,4.33,0,0,1-1.49-.27,2.67,2.67,0,0,1-1.52-1.52,4.33,4.33,0,0,1-.27-1.49c0-.84-.05-1.09-.05-3.23s0-2.39.05-3.23a4.39,4.39,0,0,1,.27-1.49,2.57,2.57,0,0,1,.6-.92,2.42,2.42,0,0,1,.92-.59,4.52,4.52,0,0,1,1.49-.28c.84,0,1.09-.05,3.23-.05m0-1.44c-2.17,0-2.45,0-3.3,0a5.85,5.85,0,0,0-1.94.37,4.08,4.08,0,0,0-1.42.92,4,4,0,0,0-.92,1.42A5.85,5.85,0,0,0,172.05,9c0,.86-.05,1.13-.05,3.3s0,2.45.05,3.3a5.85,5.85,0,0,0,.37,1.94,4,4,0,0,0,2.34,2.34,5.85,5.85,0,0,0,1.94.37c.85,0,1.13,0,3.3,0s2.45,0,3.3,0a5.85,5.85,0,0,0,1.94-.37,4,4,0,0,0,2.34-2.34,5.85,5.85,0,0,0,.37-1.94c0-.85.05-1.13.05-3.3S188,9.89,188,9a5.85,5.85,0,0,0-.37-1.94,4,4,0,0,0-.92-1.42,4.08,4.08,0,0,0-1.42-.92,5.85,5.85,0,0,0-1.94-.37c-.85,0-1.13,0-3.3,0Z"/><path d="M180,8.22a4.11,4.11,0,1,0,4.11,4.11A4.11,4.11,0,0,0,180,8.22ZM180,15a2.67,2.67,0,1,1,2.67-2.67A2.68,2.68,0,0,1,180,15Z"/><circle cx="184.27" cy="8.06" r="0.96"/><path class="cls-2" d="M276,4.5a7.24,7.24,0,0,0-7.5,6.94,6.73,6.73,0,0,0,2.8,5.41V19.5l2.55-1.4a8,8,0,0,0,2.15.29,7.24,7.24,0,0,0,7.5-7A7.24,7.24,0,0,0,276,4.5Zm.75,9.35-1.91-2-3.73,2,4.1-4.35,2,2,3.68-2-4.1,4.35Z"/><rect class="cls-18" x="288" width="24" height="24"/><path class="cls-2" d="M308,12a1.78,1.78,0,0,1-1,1.61,3.44,3.44,0,0,1,.1.86,4.08,4.08,0,0,1-.95,2.59,6.35,6.35,0,0,1-2.59,1.88,9.45,9.45,0,0,1-7.14,0,6.35,6.35,0,0,1-2.59-1.88,4.06,4.06,0,0,1-.95-2.59,3.58,3.58,0,0,1,.1-.85,1.66,1.66,0,0,1-.73-.66,1.71,1.71,0,0,1-.28-1,1.79,1.79,0,0,1,1.78-1.8,1.72,1.72,0,0,1,1.29.57,8.32,8.32,0,0,1,4.6-1.46l1-4.7a.26.26,0,0,1,.13-.19.32.32,0,0,1,.23,0l3.3.74a1.14,1.14,0,0,1,.48-.54,1.25,1.25,0,0,1,.7-.21,1.35,1.35,0,0,1,1.34,1.35,1.34,1.34,0,0,1-.39,1,1.3,1.3,0,0,1-.95.39,1.28,1.28,0,0,1-.94-.39,1.34,1.34,0,0,1-.39-1l-3-.67-.93,4.26A8.42,8.42,0,0,1,305,10.76a1.74,1.74,0,0,1,2.53,0A1.74,1.74,0,0,1,308,12Zm-12.27,1.8a1.3,1.3,0,0,0,.39.95,1.25,1.25,0,0,0,.94.4,1.27,1.27,0,0,0,.95-.4,1.35,1.35,0,0,0-.95-2.3,1.24,1.24,0,0,0-.93.4,1.31,1.31,0,0,0-.4,1ZM303,17a.33.33,0,0,0-.22-.56.32.32,0,0,0-.23.09,2.25,2.25,0,0,1-1.08.56,5.77,5.77,0,0,1-2.86,0,2.3,2.3,0,0,1-1.08-.56.32.32,0,0,0-.23-.09.29.29,0,0,0-.22.09.29.29,0,0,0-.1.23.31.31,0,0,0,.1.24,2.54,2.54,0,0,0,1,.61,5.55,5.55,0,0,0,1.1.27,7.32,7.32,0,0,0,.81,0,7.57,7.57,0,0,0,.81,0,5.32,5.32,0,0,0,1.09-.27A2.51,2.51,0,0,0,303,17Zm0-1.85a1.25,1.25,0,0,0,.94-.4,1.3,1.3,0,0,0,.39-.95,1.37,1.37,0,0,0-1.33-1.35,1.35,1.35,0,0,0-.95,2.3,1.27,1.27,0,0,0,.95.4Z"/></svg>